<svg width="45" height="45" viewBox="0 0 45 45" fill="none" xmlns="http://www.w3.org/2000/svg">
<rect width="45" height="45" rx="10" fill="white"/>
<path d="M1.40625 0C0.6296 0 0 0.6296 0 1.40625V43.5938C0 44.3704 0.6296 45 1.40625 45H43.5938C44.3704 45 45 44.3704 45 43.5938V1.40625C45 0.6296 44.3704 0 43.5938 0H1.40625ZM7.12827 40.5C6.00497 40.5 5.33507 39.248 5.95837 38.3135L11.6283 29.8125C11.8338 29.5045 12.1121 29.2519 12.4386 29.0772C12.7651 28.9026 13.1297 28.8112 13.5 28.8112C13.8703 28.8112 14.2349 28.9026 14.5614 29.0772C14.8879 29.2519 15.1662 29.5045 15.3717 29.8125L17.1619 32.4973C17.7001 33.3045 18.8747 33.3371 19.4569 32.561L25.2 24.9047C25.4096 24.6252 25.6813 24.3984 25.9938 24.2422C26.3062 24.086 26.6507 24.0047 27 24.0047C27.3493 24.0047 27.6938 24.086 28.0062 24.2422C28.3187 24.3984 28.5904 24.6252 28.8 24.9047L38.8119 38.2498C39.5073 39.1769 38.8459 40.5 37.687 40.5H7.12827Z" fill="#D1DCE0"/>
</svg>
